<?xml version="1.0" encoding="UTF-8"?>
<svg version="1.1" xmlns="http://www.w3.org/2000/svg" width="300" height="300">
<path d="M0 0 C30.69 0 61.38 0 93 0 C93 14.19 93 28.38 93 43 C76.83 43 60.66 43 44 43 C44.33 58.51 44.66 74.02 45 90 C48.96 91.98 52.92 93.96 57 96 C70.74088845 105.18229987 80.59948693 118.83999934 84.46484375 134.97265625 C87.54433376 152.39312896 85.81214059 170.17586624 75.6875 185.125 C74.47692295 186.76389563 73.24816651 188.38954787 72 190 C71.18015625 191.06927734 71.18015625 191.06927734 70.34375 192.16015625 C64.68049744 199.09229794 57.78101188 203.65580442 49.81762695 207.60864258 C48.91583206 208.05701981 48.01403717 208.50539703 47.08491516 208.96736145 C46.39689316 209.30813217 45.70887115 209.64890289 45 210 C45.00222061 210.87679916 45.00444122 211.75359833 45.00672913 212.65696716 C45.02692194 220.9957237 45.04206971 229.3344718 45.05181217 237.67324734 C45.05698952 241.95836381 45.06399133 246.24345978 45.07543945 250.52856445 C45.08645421 254.67831175 45.09231538 258.82803956 45.09487724 262.97780037 C45.09669853 264.54629892 45.10025314 266.11479662 45.10573006 267.68328667 C45.11318904 269.91184519 45.11398086 272.14032715 45.11352539 274.36889648 C45.115746 275.62798325 45.11796661 276.88707001 45.12025452 278.18431091 C44.93848246 285.46351944 44.42758309 292.73108739 44 300 C13.31 300 -17.38 300 -49 300 C-49 285.81 -49 271.62 -49 257 C-32.83 257 -16.66 257 0 257 C-0.33 241.49 -0.66 225.98 -1 210 C-4.96 208.02 -8.92 206.04 -13 204 C-26.74088845 194.81770013 -36.59948693 181.16000066 -40.46484375 165.02734375 C-43.54433376 147.60687104 -41.81214059 129.82413376 -31.6875 114.875 C-30.47692295 113.23610437 -29.24816651 111.61045213 -28 110 C-27.4534375 109.28714844 -26.906875 108.57429688 -26.34375 107.83984375 C-19.35645098 99.28699424 -10.83157533 94.91578767 -1 90 C-0.67 60.3 -0.34 30.6 0 0 Z " fill="#000000" transform="translate(128,0)"/>
</svg>
