<!--?xml version="1.0" encoding="utf-8"?-->
<!-- Generator: Adobe Illustrator 18.1.1, SVG Export Plug-In . SVG Version: 6.00 Build 0)  -->

<svg version="1.1" id="_x31_0" xmlns="http://www.w3.org/2000/svg" xmlns:xlink="http://www.w3.org/1999/xlink" x="0px" y="0px" viewBox="0 0 512 512" style="width: 256px; height: 256px; opacity: 1;" xml:space="preserve">
<style type="text/css">
	.st0{fill:#374149;}
</style>
<g>
	<path class="st0" d="M509.938,389.412l-162.504-245.18c-5.566-8.355-17.844-8.355-23.414,0l-32.187,46.13l-11.754,16.746
		l-63.832-95.82c-6.871-10.317-22.031-10.317-28.902,0L2.078,389.388c-5.43,8.149,0.414,19.062,10.202,19.062h127.372h274.558
		h85.504C509.497,408.451,515.341,397.564,509.938,389.412z M275.981,251.123l0.035-0.058l0.098,0.148l50.234-77.215
		c2.129-3.262,5.782-5.25,9.688-5.25c1.941,0,3.839,0.508,5.503,1.41c1.664,0.902,3.122,2.195,4.184,3.839l43.554,66.977
		l46.508,71.825l-70.133-65.77l-0.004-0.008l-4.375,7.801l-1.398,2.386l-18.214-20.011l-1.164-1.294l-0.008,0.008l-0.11-0.121
		l-11.902,12.332l-3.746,3.805l-6.27-12.059l-1.41-2.801l-0.031,0.028l-0.074-0.149l-31.488,27.707l15.641,24.519l14.863,23.574
		L238.246,235.4l-0.019-0.028l-4.059-4.66l-0.859-1.043l-0.023,0.031l-0.106-0.125l-11.742,16.223l-4.785,6.5l-11.11-19.231
		l-6.07-10.691l-0.05,0.094l-0.094-0.164l-10.691,21.59l-6.668,13.238l-8.996-19.165l-0.05-0.105l0,0l-0.07-0.149l-12.57,5.875
		l-36.774,35.152l-35.723,33.93l104.454-160.641c2.125-3.258,5.782-5.246,9.688-5.246c3.906,0,7.558,1.988,9.687,5.246
		l45.886,70.563L275.981,251.123z"></path>
</g>
</svg>
