<?xml version="1.0" encoding="iso-8859-1"?>
<!-- Generator: Adobe Illustrator 17.1.0, SVG Export Plug-In . SVG Version: 6.00 Build 0)  -->
<!DOCTYPE svg PUBLIC "-//W3C//DTD SVG 1.1//EN" "http://www.w3.org/Graphics/SVG/1.1/DTD/svg11.dtd">
<svg version="1.1" id="Capa_1" xmlns="http://www.w3.org/2000/svg" xmlns:xlink="http://www.w3.org/1999/xlink" x="0px" y="0px"
	 viewBox="0 0 297.961 297.961" style="enable-background:new 0 0 297.961 297.961;" xml:space="preserve">
<path d="M235.443,4.316C234.064,1.675,231.331,0,228.35,0H111.391c-3.537,0-6.654,2.341-7.666,5.729l-41.78,140.009
	c-0.723,2.422-0.259,5.029,1.251,7.055c1.51,2.027,3.889,3.207,6.415,3.207h65.579l-26.419,132.38
	c-0.769,3.85,1.369,7.697,5.047,9.07c0.917,0.342,1.863,0.511,2.796,0.511c2.806,0,5.496-1.48,6.954-4.04l103.03-180.928
	c1.41-2.477,1.396-5.533-0.036-7.997c-1.432-2.464-4.066-3.996-6.916-3.996h-46.392l61.658-88.415
	C236.617,10.14,236.822,6.959,235.443,4.316z"/>
<g>
</g>
<g>
</g>
<g>
</g>
<g>
</g>
<g>
</g>
<g>
</g>
<g>
</g>
<g>
</g>
<g>
</g>
<g>
</g>
<g>
</g>
<g>
</g>
<g>
</g>
<g>
</g>
<g>
</g>
</svg>
