<?xml version="1.0" encoding="iso-8859-1"?>
<!-- Generator: Adobe Illustrator 16.0.0, SVG Export Plug-In . SVG Version: 6.00 Build 0)  -->
<!DOCTYPE svg PUBLIC "-//W3C//DTD SVG 1.1//EN" "http://www.w3.org/Graphics/SVG/1.1/DTD/svg11.dtd">
<svg version="1.1" id="Capa_1" xmlns="http://www.w3.org/2000/svg" xmlns:xlink="http://www.w3.org/1999/xlink" x="0px" y="0px"
	 width="471.028px" height="471.027px" viewBox="0 0 471.028 471.027" style="enable-background:new 0 0 471.028 471.027;"
	 xml:space="preserve">
<g>
	<g>
		<path d="M300.878,0.001c-21.571,15.58-41.054,33.904-58.603,53.877c-17.932,20.407-33.888,42.507-48.239,65.556
			c-14.641,23.512-27.562,48.085-39.178,73.222c-11.748,25.423-22.114,51.49-31.364,77.922c-8.9,25.432-16.759,51.229-23.695,77.264
			c-6.396,24-12.017,48.215-16.784,72.592c-3.2,16.363-6.298,32.852-8.08,49.438l82.644,0.486c0.136-4.141,0.308-8.281,0.529-12.418
			c0.035-0.658,0.506-10.574,0.642-10.574l30.317,0.021c-0.335,7.715-0.415,15.434-0.336,23.154l82.644,0.486
			c-0.622-2.145-0.771-4.496-1.067-6.707c-0.339-2.535-0.647-5.074-0.94-7.617c-0.576-5.02-1.086-10.047-1.545-15.078
			c-1.043-11.418-1.834-22.857-2.423-34.309c-1.325-25.793-1.618-51.644-0.831-77.461c0.857-28.065,3.004-56.114,6.809-83.94
			c3.789-27.72,9.215-55.296,17-82.182c7.478-25.825,17.075-51.139,29.729-74.892c12.271-23.031,27.543-44.33,46.047-62.766
			c5.634-5.613,11.656-10.749,17.775-15.82c4.665-3.517,9.345-6.949,14.162-10.255L300.878,0.001L300.878,0.001z M197.11,343.742
			c-2.723,21.169-4.724,42.391-6.285,63.674l-28.643,0.033c3.064-23.777,6.027-47.527,10.307-71.129
			c0.507-2.801,1.015-5.6,1.522-8.398l26.013,0.028C200.024,327.949,198.075,336.695,197.11,343.742
			C196.202,350.797,198.075,336.695,197.11,343.742z M221.988,220.447c-3.576,11.996-6.575,24.216-9.364,36.416
			c-2.597,11.359-4.982,22.758-7.149,34.207l-23.822-0.08c5.166-22.152,10.863-44.182,17.756-65.867
			c1.462-4.597,2.955-9.182,4.494-13.753l20.446,1.562C224.348,212.931,222.562,218.456,221.988,220.447
			C221.396,222.43,222.562,218.456,221.988,220.447z M265.817,109.607c-6.107,10.976-11.505,22.445-16.506,33.96
			c-4.896,11.275-9.424,22.679-13.628,34.229c-0.016,0.044-0.032,0.088-0.048,0.131l-20,0.053
			c3.472-7.425,6.607-14.983,9.921-22.479c5.532-12.51,11.586-24.795,18.103-36.82c3.129-5.775,6.34-11.518,9.75-17.131
			l15.623,1.688C269.032,103.237,266.084,109.123,265.817,109.607C265.547,110.09,266.084,109.123,265.817,109.607z M336.894,17.837
			c-4.303,3.905-8.56,7.829-12.708,11.897c-4.827,4.734-9.375,9.728-13.857,14.784c-8.003,9.026-15.191,18.7-22.183,28.518
			c-0.144,0.201-0.286,0.402-0.43,0.603l-16.267,0.023c4.229-5.549,8.434-11.124,12.797-16.569
			c8.045-10.036,16.744-19.584,25.979-28.534c3.662-3.549,7.429-6.964,11.221-10.373c1.828-1.645,3.748-3.19,5.644-4.756
			c1.431-1.182,2.814-2.454,4.312-3.551l15.686-0.161C347.088,9.72,337.303,17.465,336.894,17.837
			C336.485,18.209,337.303,17.465,336.894,17.837z"/>
	</g>
</g>
<g>
</g>
<g>
</g>
<g>
</g>
<g>
</g>
<g>
</g>
<g>
</g>
<g>
</g>
<g>
</g>
<g>
</g>
<g>
</g>
<g>
</g>
<g>
</g>
<g>
</g>
<g>
</g>
<g>
</g>
</svg>
