<?xml version="1.0" standalone="no"?>
<!DOCTYPE svg PUBLIC "-//W3C//DTD SVG 20010904//EN"
 "http://www.w3.org/TR/2001/REC-SVG-20010904/DTD/svg10.dtd">
<svg version="1.0" xmlns="http://www.w3.org/2000/svg"
 width="228.000000pt" height="228.000000pt" viewBox="0 0 228.000000 228.000000"
 preserveAspectRatio="xMidYMid meet">
<metadata>
Created by potrace 1.16, written by Peter Selinger 2001-2019
</metadata>
<g transform="translate(0.000000,228.000000) scale(0.100000,-0.100000)"
fill="#000000" stroke="none">
<path d="M1060 2267 c-46 -15 -132 -102 -149 -152 -11 -32 -15 -164 -18 -654
l-4 -615 -53 -50 c-104 -98 -148 -200 -148 -341 0 -185 94 -331 265 -410 244
-113 530 7 617 259 60 176 17 350 -122 488 l-68 67 0 607 c0 447 -3 618 -12
648 -16 55 -99 138 -154 154 -49 14 -106 14 -154 -1z"/>
</g>
</svg>
